<?xml version="1.0" encoding="UTF-8" standalone="no"?>
<!DOCTYPE svg PUBLIC "-//W3C//DTD SVG 1.1//EN"
 "http://www.w3.org/Graphics/SVG/1.1/DTD/svg11.dtd">
<!-- Generated by graphviz version 2.44.1 (20220725.2034)
 -->
<!-- Title: opp Pages: 1 -->
<svg width="724pt" height="82pt"
 viewBox="0.00 0.00 724.00 82.00" xmlns="http://www.w3.org/2000/svg" xmlns:xlink="http://www.w3.org/1999/xlink">
<g id="graph0" class="graph" transform="scale(1 1) rotate(0) translate(4 78)">
<title>opp</title>
<polygon fill="transparent" stroke="transparent" points="-4,4 -4,-78 720,-78 720,4 -4,4"/>
<!-- BangaloreScenario -->
<g id="node1" class="node">
<title>BangaloreScenario</title>
<g id="a_node1"><a xlink:href="bangalore_v2v.simulations.bangalore_simulation.BangaloreScenario.html" xlink:title="Network BangaloreScenario" target="_parent">
<polygon fill="#9090ff" stroke="black" points="464,-74 366,-74 366,-55 464,-55 464,-74"/>
<text text-anchor="middle" x="415" y="-62" font-family="Helvetica,sans-Serif" font-size="10.00">BangaloreScenario</text>
</a>
</g>
</g>
<!-- TraCIScenarioManagerLaunchd -->
<g id="node2" class="node">
<title>TraCIScenarioManagerLaunchd</title>
<g id="a_node2"><a xlink:href="../../../veins/doc/neddoc/org.car2x.veins.modules.mobility.traci.TraCIScenarioManagerLaunchd.html" xlink:title="Simple Module TraCIScenarioManagerLaunchd" target="_parent">
<polygon fill="#fffcaf" stroke="black" points="154,-19 0,-19 0,0 154,0 154,-19"/>
<text text-anchor="middle" x="77" y="-7" font-family="Helvetica,sans-Serif" font-size="10.00">TraCIScenarioManagerLaunchd</text>
</a>
</g>
</g>
<!-- BangaloreScenario&#45;&gt;TraCIScenarioManagerLaunchd -->
<g id="edge1" class="edge">
<title>BangaloreScenario&#45;&gt;TraCIScenarioManagerLaunchd</title>
<path fill="none" stroke="black" d="M365.85,-55.79C306.59,-46.5 206.81,-30.86 141.43,-20.6"/>
<polygon fill="black" stroke="black" points="141.67,-17.1 131.25,-19.01 140.58,-24.01 141.67,-17.1"/>
</g>
<!-- AnnotationManager -->
<g id="node3" class="node">
<title>AnnotationManager</title>
<g id="a_node3"><a xlink:href="../../../veins/doc/neddoc/org.car2x.veins.modules.world.annotations.AnnotationManager.html" xlink:title="Simple Module AnnotationManager" target="_parent">
<polygon fill="#fffcaf" stroke="black" points="273.5,-19 172.5,-19 172.5,0 273.5,0 273.5,-19"/>
<text text-anchor="middle" x="223" y="-7" font-family="Helvetica,sans-Serif" font-size="10.00">AnnotationManager</text>
</a>
</g>
</g>
<!-- BangaloreScenario&#45;&gt;AnnotationManager -->
<g id="edge2" class="edge">
<title>BangaloreScenario&#45;&gt;AnnotationManager</title>
<path fill="none" stroke="black" d="M384.15,-54.98C351.5,-45.97 299.8,-31.7 263.8,-21.76"/>
<polygon fill="black" stroke="black" points="264.66,-18.37 254.09,-19.08 262.8,-25.12 264.66,-18.37"/>
</g>
<!-- RoadsCanvasVisualizer -->
<g id="node4" class="node">
<title>RoadsCanvasVisualizer</title>
<g id="a_node4"><a xlink:href="../../../veins/doc/neddoc/org.car2x.veins.visualizer.roads.RoadsCanvasVisualizer.html" xlink:title="Simple Module RoadsCanvasVisualizer" target="_parent">
<polygon fill="#fffcaf" stroke="black" points="414,-19 292,-19 292,0 414,0 414,-19"/>
<text text-anchor="middle" x="353" y="-7" font-family="Helvetica,sans-Serif" font-size="10.00">RoadsCanvasVisualizer</text>
</a>
</g>
</g>
<!-- BangaloreScenario&#45;&gt;RoadsCanvasVisualizer -->
<g id="edge3" class="edge">
<title>BangaloreScenario&#45;&gt;RoadsCanvasVisualizer</title>
<path fill="none" stroke="black" d="M405.04,-54.98C395.87,-47.15 382.06,-35.34 370.97,-25.86"/>
<polygon fill="black" stroke="black" points="373.02,-23.01 363.14,-19.17 368.47,-28.33 373.02,-23.01"/>
</g>
<!-- BaseWorldUtility -->
<g id="node5" class="node">
<title>BaseWorldUtility</title>
<g id="a_node5"><a xlink:href="../../../veins/doc/neddoc/org.car2x.veins.base.modules.BaseWorldUtility.html" xlink:title="Simple Module BaseWorldUtility" target="_parent">
<polygon fill="#fffcaf" stroke="black" points="521.5,-19 432.5,-19 432.5,0 521.5,0 521.5,-19"/>
<text text-anchor="middle" x="477" y="-7" font-family="Helvetica,sans-Serif" font-size="10.00">BaseWorldUtility</text>
</a>
</g>
</g>
<!-- BangaloreScenario&#45;&gt;BaseWorldUtility -->
<g id="edge4" class="edge">
<title>BangaloreScenario&#45;&gt;BaseWorldUtility</title>
<path fill="none" stroke="black" d="M424.96,-54.98C434.13,-47.15 447.94,-35.34 459.03,-25.86"/>
<polygon fill="black" stroke="black" points="461.53,-28.33 466.86,-19.17 456.98,-23.01 461.53,-28.33"/>
</g>
<!-- ConnectionManager -->
<g id="node6" class="node">
<title>ConnectionManager</title>
<g id="a_node6"><a xlink:href="../../../veins/doc/neddoc/org.car2x.veins.base.connectionManager.ConnectionManager.html" xlink:title="Simple Module ConnectionManager" target="_parent">
<polygon fill="#fffcaf" stroke="black" points="644,-19 540,-19 540,0 644,0 644,-19"/>
<text text-anchor="middle" x="592" y="-7" font-family="Helvetica,sans-Serif" font-size="10.00">ConnectionManager</text>
</a>
</g>
</g>
<!-- BangaloreScenario&#45;&gt;ConnectionManager -->
<g id="edge5" class="edge">
<title>BangaloreScenario&#45;&gt;ConnectionManager</title>
<path fill="none" stroke="black" d="M443.44,-54.98C473.28,-46.05 520.38,-31.94 553.53,-22.02"/>
<polygon fill="black" stroke="black" points="554.76,-25.3 563.34,-19.08 552.76,-18.6 554.76,-25.3"/>
</g>
<!-- Car -->
<g id="node7" class="node">
<title>Car</title>
<g id="a_node7"><a xlink:href="../../../veins/doc/neddoc/org.car2x.veins.nodes.Car.html" xlink:title="Compound Module Car" target="_parent">
<polygon fill="#fffcaf" stroke="black" points="716,-19 662,-19 662,0 716,0 716,-19"/>
<text text-anchor="middle" x="689" y="-7" font-family="Helvetica,sans-Serif" font-size="10.00">Car</text>
</a>
</g>
</g>
<!-- BangaloreScenario&#45;&gt;Car -->
<g id="edge6" class="edge">
<title>BangaloreScenario&#45;&gt;Car</title>
<path fill="none" stroke="black" d="M464.36,-54.97C510.42,-46.85 581.3,-33.96 651.94,-19.14"/>
<polygon fill="black" stroke="black" points="652.84,-22.53 661.9,-17.04 651.4,-15.68 652.84,-22.53"/>
</g>
</g>
</svg>
